<svg xmlns="http://www.w3.org/2000/svg" width="196" height="196" viewBox="0 0 196 196">
    <defs>
        <linearGradient id="a" x1="0%" x2="75.269%" y1="0%" y2="73.032%">
            <stop offset="0%" stop-color="#1881C3"/>
            <stop offset="100%" stop-color="#33BDE8"/>
        </linearGradient>
    </defs>
    <g fill="none" fill-rule="evenodd">
        <circle cx="98" cy="98" r="98" fill="url(#a)"/>
        <g fill="#FFF" fill-rule="nonzero" transform="translate(39 27)">
            <path d="M90.953 33.605c-13.255.14-17.441 3.767-24 9.488-2.511 2.233-11.58 2.651-17.162 2.093-3.21-.279-6 2.093-6.419 5.163-.279 3.21 1.954 6 5.163 6.418.977.14 3.21.28 6 .28 6 0 14.93-.838 19.953-5.303.698-.697 1.396-1.256 2.093-1.814-.558 5.86-1.395 16.047-2.093 24.977-19.255.419-27.07 2.233-30 8.512-2.093 4.604-2.232 19.116-.279 43.116.28 3.907 3.628 6.977 7.535 6.977h.558c4.186-.28 7.256-3.907 6.977-8.093-.977-12.698-1.674-28.047-1.116-34.047 3.767-.837 11.302-1.256 17.72-1.116 6.838.14 21.49 1.395 22.884-4.326 1.535-6.418 3.628-36.14 3.628-43.116 0-4.884-1.953-9.21-11.442-9.21z"/>
            <circle cx="91.053" cy="15.769" r="14.652" transform="rotate(-86.63 91.053 15.769)"/>
            <path d="M113.419 36.256c-2.652-.28-5.024 1.674-5.303 4.325l-5.72 53.86H68.07c-2.651 0-4.884 2.233-4.884 4.885 0 2.65 2.233 4.883 4.884 4.883h15.767v17.86l-10.884 3.908c-1.953.697-3.07 2.93-2.372 5.023.698 2.093 2.93 3.07 5.024 2.372l12.14-4.325 12.139 4.325c.418.14.837.28 1.256.28 1.534 0 3.07-.978 3.627-2.512.698-1.954-.279-4.187-2.372-5.024l-10.883-3.907v-18h15.07c2.511 0 4.604-1.814 4.883-4.325l6.14-58.186c.418-2.791-1.535-5.163-4.186-5.442zM69.047 72.535c.558 0 1.116-.558 1.116-1.116V64.86c0-.558-.558-1.116-1.116-1.116H61.79v-2.232c0-.559-.558-1.117-1.117-1.117H40.163c-.558 0-1.116.558-1.116 1.117v2.232H25.512v-2.232c0-.559-.559-1.117-1.396-1.117h-5.581c-.558-5.302-.837-18.558 3.07-24.418l.418 3.628c.14.558.698.976 1.256.976l1.256-.14 1.395 10.187c.14.558.698.977 1.256.977l4.326-.558c.558-.14.976-.698.976-1.256l-4.883-36.28c-.14-.558-.698-.976-1.256-.976l-4.186.418c-.558.14-.977.698-.977 1.256l1.535 11.582-1.256.14c-.558.139-.977.697-.977 1.255l.559 3.767c-.559.42-1.256.977-1.814 1.675-5.86 6.977-4.884 23.72-4.466 27.628H9.326c-.838 0-1.396.558-1.396 1.116v2.233H1.372c-.558 0-1.116.558-1.116 1.116v6.558c0 .558.558 1.116 1.116 1.116h8.512v59.442c0 .558.558 1.116 1.116 1.116h19.674c.559 0 1.117-.558 1.117-1.116V72.535h37.256z"/>
        </g>
    </g>
</svg>
