<svg xmlns="http://www.w3.org/2000/svg" width="196" height="196" viewBox="0 0 196 196">
    <defs>
        <linearGradient id="a" x1="0%" x2="75.269%" y1="0%" y2="73.032%">
            <stop offset="0%" stop-color="#1881C3"/>
            <stop offset="100%" stop-color="#33BDE8"/>
        </linearGradient>
    </defs>
    <g fill="none" fill-rule="evenodd">
        <circle cx="98" cy="98" r="98" fill="url(#a)"/>
        <g fill="#FFF" fill-rule="nonzero">
            <path d="M147.957 36H48.043c-4.33 0-7.878 3.522-7.878 7.852v13.174h115.67V43.852c0-4.33-3.522-7.852-7.878-7.852zM61.19 51.73h-5.27a2.616 2.616 0 0 1-2.608-2.608 2.616 2.616 0 0 1 2.609-2.609h5.27a2.616 2.616 0 0 1 2.608 2.609 2.616 2.616 0 0 1-2.609 2.608zm18.418 0h-5.27a2.616 2.616 0 0 1-2.609-2.608 2.616 2.616 0 0 1 2.61-2.609h5.269a2.616 2.616 0 0 1 2.608 2.609 2.616 2.616 0 0 1-2.608 2.608zm18.39 0h-5.242a2.6 2.6 0 0 1-2.61-2.608 2.6 2.6 0 0 1 2.61-2.609H98a2.616 2.616 0 0 1 2.609 2.609 2.616 2.616 0 0 1-2.61 2.608zM129.696 89.165c-16.33-.86-29.661-14.817-29.792-14.948-.99-1.043-2.817-1.043-3.808 0-.13.13-13.435 14.087-29.792 14.948a2.604 2.604 0 0 0-2.452 2.609 88.988 88.988 0 0 0 29.53 66.183l2.87 2.582a2.63 2.63 0 0 0 1.748.678 2.63 2.63 0 0 0 1.748-.678l2.895-2.582c18.757-16.853 29.53-40.957 29.53-66.183a2.627 2.627 0 0 0-2.477-2.609zM98 129.887c-10.33 0-18.73-8.426-18.73-18.757 0-10.33 8.4-18.73 18.73-18.73s18.73 8.4 18.73 18.73-8.4 18.757-18.73 18.757z"/>
            <path d="M155.835 62.243v65.766c0 4.33-3.522 7.852-7.878 7.852h-21.574c7.121-13.461 11.008-28.565 11.008-44.087 0-4.148-3.26-7.591-7.408-7.826-13.853-.73-25.826-12.835-26.296-13.33a7.927 7.927 0 0 0-5.687-2.4c-2.165 0-4.226.886-5.66 2.373-.497.522-12.418 12.626-26.323 13.357-4.147.235-7.382 3.678-7.382 7.826 0 15.522 3.887 30.626 11.008 44.087h-21.6c-4.33 0-7.878-3.522-7.878-7.852V62.243h115.67z"/>
            <path d="M103.004 105.1l-8.394 6.043-.785-1.593a2.61 2.61 0 1 0-4.682 2.306l2.147 4.358a2.615 2.615 0 0 0 2.341 1.456c.543 0 1.075-.17 1.524-.492l10.896-7.845a2.608 2.608 0 1 0-3.047-4.234z"/>
        </g>
    </g>
</svg>
