<svg xmlns="http://www.w3.org/2000/svg" width="196" height="196" viewBox="0 0 196 196">
    <defs>
        <linearGradient id="a" x1="0%" x2="75.269%" y1="0%" y2="73.032%">
            <stop offset="0%" stop-color="#1881C3"/>
            <stop offset="100%" stop-color="#33BDE8"/>
        </linearGradient>
    </defs>
    <g fill="none" fill-rule="evenodd">
        <circle cx="98" cy="98" r="98" fill="url(#a)"/>
        <path fill="#FFF" fill-rule="nonzero" d="M153.392 145.014l-27.383-27.387c14.3-19.39 12.62-47.216-4.792-64.627-9.38-9.377-21.85-14.542-35.11-14.542C72.843 38.458 60.375 43.623 51 53c-9.378 9.38-14.543 21.846-14.543 35.106 0 13.261 5.165 25.73 14.543 35.11 9.376 9.378 21.844 14.543 35.108 14.543 10.733 0 21.02-3.425 29.528-9.742l27.377 27.372a7.286 7.286 0 0 0 5.188 2.15 7.273 7.273 0 0 0 5.182-2.143 7.287 7.287 0 0 0 2.156-5.19 7.287 7.287 0 0 0-2.148-5.192zm-67.286-91.88c9.34 0 18.123 3.637 24.73 10.245 6.594 6.592 10.226 15.374 10.226 24.727s-3.632 18.136-10.227 24.73c-6.605 6.606-15.387 10.244-24.729 10.244-9.34 0-18.122-3.638-24.73-10.244-6.606-6.604-10.244-15.386-10.244-24.73 0-9.34 3.638-18.122 10.244-24.727 6.609-6.606 15.39-10.246 24.73-10.246z"/>
    </g>
</svg>
