<svg xmlns="http://www.w3.org/2000/svg" width="196" height="196" viewBox="0 0 196 196">
    <defs>
        <linearGradient id="a" x1="0%" x2="75.269%" y1="0%" y2="73.032%">
            <stop offset="0%" stop-color="#1881C3"/>
            <stop offset="100%" stop-color="#33BDE8"/>
        </linearGradient>
    </defs>
    <g fill="none" fill-rule="evenodd">
        <circle cx="98" cy="98" r="98" fill="url(#a)"/>
        <g fill="#FFF" fill-rule="nonzero">
            <path d="M98 87.33c-9.11 0-16.522 7.412-16.522 16.522S88.89 120.374 98 120.374s16.522-7.412 16.522-16.522S107.11 87.33 98 87.33z"/>
            <path d="M149.305 66.706h-30.87l-2.174-8.962c0-1.921-1.557-3.744-3.478-3.744H84.957c-1.92 0-3.479 1.824-3.479 3.744l-2.174 8.962H46.695c-4.801 0-8.695 2.778-8.695 7.581v59.13c0 4.802 3.894 9.524 8.695 9.524h102.61c4.803 0 8.695-4.722 8.695-9.524v-59.13c0-4.803-3.892-7.581-8.695-7.581zM98 130.808c-14.887 0-26.956-12.069-26.956-26.957 0-14.887 12.069-26.956 26.956-26.956 14.888 0 26.956 12.069 26.956 26.956 0 14.888-12.068 26.957-26.956 26.957z"/>
        </g>
    </g>
</svg>
