<svg xmlns="http://www.w3.org/2000/svg" width="196" height="196" viewBox="0 0 196 196">
    <defs>
        <linearGradient id="a" x1="0%" x2="75.269%" y1="0%" y2="73.032%">
            <stop offset="0%" stop-color="#1881C3"/>
            <stop offset="100%" stop-color="#33BDE8"/>
        </linearGradient>
    </defs>
    <g fill="none" fill-rule="evenodd">
        <circle cx="98" cy="98" r="98" fill="url(#a)"/>
        <path fill="#FFF" fill-rule="nonzero" d="M98 54.395c-8.928 0-17.869 3.392-24.68 10.204a34.748 34.748 0 0 0-9.986 20.625C49.12 86.514 38 98.449 38 113c0 15.412 12.495 27.907 27.907 27.907h68.372A23.669 23.669 0 0 0 158 117.187a23.67 23.67 0 0 0-23.72-23.722h-1.658c1.23-10.262-2.11-20.991-9.985-28.866-6.812-6.812-15.71-10.204-24.637-10.204zm0 29.303c.74-.003 1.26.136 1.875.697l15.349 13.954c1.092.98 1.292 2.892.218 3.968-1.037 1.038-2.885 1.163-3.968.174l-10.683-9.724v30a2.79 2.79 0 1 1-5.582 0v-30l-10.683 9.724c-1.083.99-2.983.913-3.968-.174-.984-1.088-.929-2.97.218-3.968l15.349-13.954c.399-.365 1.129-.683 1.875-.697z"/>
    </g>
</svg>
